<?xml version="1.0" encoding="utf-8"?>
<!-- Generator: Adobe Illustrator 28.0.0, SVG Export Plug-In . SVG Version: 6.00 Build 0)  -->
<svg version="1.1" id="Layer_1" xmlns="http://www.w3.org/2000/svg" xmlns:xlink="http://www.w3.org/1999/xlink" x="0px" y="0px"
	 viewBox="0 0 261.4 261.4" style="enable-background:new 0 0 261.4 261.4;" xml:space="preserve">
<style type="text/css">
	.st0{fill:url(#SVGID_1_);}
	.st1{fill:#FFFFFF;}
	.st2{fill:url(#SVGID_00000067950831497987835240000015917519146744498873_);}
	.st3{opacity:0.21;fill:url(#SVGID_00000047046101434258354460000005316386029260990647_);}
	.st4{fill:url(#SVGID_00000086656903632639852400000001888675744820399789_);}
	.st5{fill:url(#SVGID_00000057122639400192294510000005080145150037565094_);}
</style>
<g>
	<linearGradient id="SVGID_1_" gradientUnits="userSpaceOnUse" x1="1.3879" y1="-6.2186" x2="256.6622" y2="264.0719">
		<stop  offset="0" style="stop-color:#FF453A"/>
		<stop  offset="1" style="stop-color:#F4511E"/>
	</linearGradient>
	<rect class="st0" width="261.4" height="261.4"/>
	<path class="st1" d="M199.7,143.3l-55.3,55.3c-7.6,7.6-19.9,7.6-27.5,0l-53.5-53.5l-1.8-1.8c-0.1-0.1-0.3-0.3-0.4-0.4
		c-19.2-19.7-19-51.2,0.4-71l0.4-0.4c23.1-23.1,45.8-15,64.7,0.7c0.4,0.3,0.7,0.6,1,0.9l2.5,2.4l0.4,0.3l0.1-0.1l2.9-2.7
		c0.3-0.3,0.6-0.5,0.9-0.8c18.9-15.7,41.7-23.8,64.8-0.7l0.4,0.4C219.2,91.8,219.3,123.7,199.7,143.3z"/>
	
		<linearGradient id="SVGID_00000093862945500586061930000007872900001953152675_" gradientUnits="userSpaceOnUse" x1="91.3669" y1="130.6939" x2="170.0167" y2="130.6939">
		<stop  offset="0" style="stop-color:#FF453A"/>
		<stop  offset="1" style="stop-color:#F4511E"/>
	</linearGradient>
	<path style="fill:url(#SVGID_00000093862945500586061930000007872900001953152675_);" d="M163.1,136.6l-26,26
		c-3.6,3.6-9.3,3.6-12.9,0l-25.1-25.1l-0.8-0.8c-0.1-0.1-0.1-0.1-0.2-0.2c-9-9.2-8.9-24.1,0.2-33.4l0.2-0.2
		c10.9-10.9,21.5-7,30.4,0.3c0.2,0.1,0.3,0.3,0.5,0.4l1.2,1.1l0.2,0.2l0,0l1.3-1.3c0.1-0.1,0.3-0.3,0.4-0.4
		c8.9-7.4,19.6-11.2,30.4-0.3l0.2,0.2C172.3,112.4,172.3,127.4,163.1,136.6z"/>
</g>
</svg>
